<svg xmlns="http://www.w3.org/2000/svg" width="512.001" height="512.001" shape-rendering="geometricPrecision" text-rendering="geometricPrecision" image-rendering="optimizeQuality" fill-rule="evenodd" clip-rule="evenodd" viewBox="0 0 13546.8 13546.8"><path d="M5644.56 4102.75h-828.53v1928.89H4275.4v490.8h540.63v417.16H4275.4v490.8h540.63v2013.77h825.63V7430.4h1183.42l1139.05 1929.01h766.5V7430.4h540.63v-490.8h-540.63v-417.16h540.63v-490.8h-540.63V4102.75h-766.5v1928.89H6764.62L5644.56 4102.75zM6773.45 0c1870 0 3563.57 758.28 4789.32 1984.03 1225.75 1225.74 1984.03 2919.2 1984.03 4789.44 0 1870.24-758.28 3563.69-1984.03 4789.32-1225.62 1225.75-2919.08 1984.02-4789.32 1984.02-1870.24 0-3563.69-758.27-4789.44-1984.02C758.26 10337.05-.01 8643.47-.01 6773.47c0-1870.24 758.27-3563.69 1984.02-4789.44C3209.75 758.28 4903.21 0 6773.45 0zm4156.19 2617.16C9866.17 1553.68 8396.54 895.77 6773.45 895.77c-1623.21 0-3092.84 657.91-4156.31 1721.39C1553.67 3680.63 895.75 5150.26 895.75 6773.47c0 1623.09 657.92 3092.72 1721.39 4156.19 1063.47 1063.47 2533.1 1721.39 4156.31 1721.39 1623.21 0 3092.84-657.92 4156.19-1721.39 1063.48-1063.35 1721.39-2532.98 1721.39-4156.19 0-1623.21-657.91-3092.84-1721.39-4156.31zM5641.66 6939.61v-417.16h647.16l246.3 417.16h-893.46zm1650.41 0h672.07v-417.16h-914.38l242.31 417.16zm672.07 490.8h-387.18l387.18 666.87v-666.87zM5641.67 6031.64v-605.08l357.31 605.08h-357.31z"/></svg>